<?xml version="1.0" encoding="UTF-8"?>
<svg width="163px" height="52px" viewBox="0 0 163 52" version="1.1" xmlns="http://www.w3.org/2000/svg" xmlns:xlink="http://www.w3.org/1999/xlink">
    <!-- Generator: sketchtool 50.2 (55047) - http://www.bohemiancoding.com/sketch -->
    <title>1632F415-68C3-4F62-AE9B-2ED29C29C62C</title>
    <desc>Created with sketchtool.</desc>
    <defs></defs>
    <g id="Breakpoint-lg-992" stroke="none" stroke-width="1" fill="none" fill-rule="evenodd">
        <g id="Bloom-lg-A" transform="translate(-40.000000, -9.000000)">
            <g id="blooom-logo" transform="translate(40.000000, 9.000000)">
                <g id="blooom" transform="translate(46.000000, 13.000000)" fill="#4C4C4C" fill-rule="nonzero">
                    <path d="M0.081627907,26.19 L0.081627907,0.198 L4.61651163,0.198 L4.61651163,9.288 C6.07825233,7.95949769 7.99950524,7.24074247 9.98127907,7.281 C12.28495,7.23647916 14.4729991,8.28033396 15.8766279,10.0935 C18.9695538,14.1537686 18.9695538,19.7582314 15.8766279,23.8185 C14.4559609,25.6323879 12.255082,26.6734759 9.94046512,26.6265 C7.67,26.6265 5.89686047,25.8855 4.62104651,24.4035 L4.62104651,26.2035 L0.081627907,26.19 Z M8.95186047,11.3715 C7.54117362,11.2919947 6.19903311,11.982055 5.45093023,13.1715 C4.15667296,15.539045 4.15667296,18.395455 5.45093023,20.763 C6.19972202,21.9517042 7.54138621,22.6415196 8.95186047,22.563 C10.3722154,22.6362163 11.7234303,21.9494962 12.4936047,20.763 C13.7391269,18.383414 13.7391269,15.551086 12.4936047,13.1715 C11.7240862,11.9842854 10.3724196,11.2973358 8.95186047,11.3715 Z" id="Shape"></path>
                    <polygon id="Shape" points="19.9852326 26.19 19.9852326 0.198 24.5201163 0.198 24.5201163 26.19"></polygon>
                    <path d="M35.7893023,7.281 C38.7702326,7.281 41.1434884,8.2065 42.9090698,10.0575 C44.602093,11.8305 45.447093,14.13 45.4440698,16.956 C45.4410465,19.782 44.5960465,22.0815 42.9090698,23.8545 C41.1465116,25.7055 38.7732558,26.6295 35.7893023,26.6265 C32.8053488,26.6235 30.432093,25.6995 28.6695349,23.8545 C26.9765116,22.0785 26.1315116,19.779 26.1345349,16.956 C26.1375581,14.133 27.0006977,11.814 28.7239535,9.999 C30.4562791,8.19 32.8113953,7.284 35.7893023,7.281 Z M35.7893023,11.3715 C34.3717537,11.327228 33.0201503,11.9659775 32.1613953,13.086 C30.5226898,15.4097789 30.5226898,18.5022211 32.1613953,20.826 C33.0589441,21.9113308 34.3993696,22.5404566 35.8142442,22.5404566 C37.2291188,22.5404566 38.5695443,21.9113308 39.467093,20.826 C41.1057985,18.5022211 41.1057985,15.4097789 39.467093,13.086 C38.5995754,11.949505 37.2246724,11.3085573 35.7893023,11.3715 Z" id="Shape"></path>
                    <path d="M56.6497674,7.281 C59.6337209,7.281 62.0069767,8.2065 63.7695349,10.0575 C65.4595349,11.8305 66.3045349,14.13 66.3045349,16.956 C66.3045349,19.782 65.4595349,22.0815 63.7695349,23.8545 C62.0039535,25.7055 59.6306977,26.6295 56.6497674,26.6265 C53.6688372,26.6235 51.2955814,25.6995 49.53,23.8545 C47.8369767,22.0785 46.9919767,19.779 46.995,16.956 C46.9980233,14.133 47.8611628,11.814 49.5844186,9.999 C51.3016279,8.19 53.6567442,7.284 56.6497674,7.281 Z M56.6497674,11.3715 C55.2227487,11.3183554 53.8590257,11.9580349 52.9946512,13.086 C51.3559457,15.4097789 51.3559457,18.5022211 52.9946512,20.826 C53.8930792,21.9114806 55.2342182,22.5406054 56.6497674,22.5406054 C58.0653166,22.5406054 59.4064557,21.9114806 60.3048837,20.826 C61.9435892,18.5022211 61.9435892,15.4097789 60.3048837,13.086 C59.4405092,11.9580349 58.0767861,11.3183554 56.6497674,11.3715 Z" id="Shape"></path>
                    <path d="M77.4694186,7.281 C80.4533721,7.281 82.8266279,8.2065 84.589186,10.0575 C86.2822093,11.8305 87.1272093,14.13 87.124186,16.956 C87.1211628,19.782 86.2761628,22.0815 84.589186,23.8545 C82.8266279,25.7055 80.4533721,26.6295 77.4694186,26.6265 C74.4854651,26.6235 72.1122093,25.6995 70.3496512,23.8545 C68.6596512,22.0785 67.8146512,19.779 67.8146512,16.956 C67.8146512,14.133 68.6777907,11.814 70.4040698,9.999 C72.1182558,8.19 74.4733721,7.284 77.4694186,7.281 Z M77.4694186,11.3715 C76.0513906,11.3249526 74.6987884,11.9641741 73.8415116,13.086 C72.2028061,15.4097789 72.2028061,18.5022211 73.8415116,20.826 C74.7390603,21.9113308 76.0794859,22.5404566 77.4943605,22.5404566 C78.9092351,22.5404566 80.2496606,21.9113308 81.1472093,20.826 C82.7859148,18.5022211 82.7859148,15.4097789 81.1472093,13.086 C80.2781767,11.9513622 78.9043152,11.3109 77.4694186,11.3715 Z" id="Shape"></path>
                    <path d="M88.9154651,26.19 L88.9154651,7.7175 L93.4503488,7.7175 L93.4503488,9.5445 C94.8669074,8.07163606 96.8408232,7.25549777 98.8922093,7.2945 C101.749186,7.2945 103.60093,8.22 104.447442,10.071 C105.803849,8.2489679 107.979933,7.20971992 110.261163,7.2945 C114.66,7.2945 116.859419,9.2655 116.859419,13.2075 L116.859419,26.2035 L112.324535,26.2035 L112.324535,14.9985 C112.324535,12.5985 111.293605,11.3985 109.231744,11.3985 C108.059197,11.3758607 106.952918,11.9365676 106.28407,12.8925 C105.522445,13.9376557 105.130249,15.2032783 105.168488,16.4925 L105.168488,26.2395 L100.63814,26.2395 L100.63814,15.0345 C100.63814,12.6345 99.58,11.4345 97.4637209,11.4345 C96.3041967,11.4176049 95.2156931,11.9873441 94.575,12.9465 C93.8331402,13.9851084 93.4483085,15.2332916 93.4775581,16.506 L93.4775581,26.253 L88.9154651,26.19 Z" id="Shape"></path>
                </g>
                <g id="Line" transform="translate(37.000000, 0.000000)" fill="#C3C3C3" fill-rule="nonzero">
                    <rect id="Rectangle-path" x="0.513333333" y="0" width="1" height="51.6970435"></rect>
                </g>
                <g id="_" transform="translate(0.000000, 8.000000)" fill="#80B729">
                    <path d="M15.3313235,3.74126582 L17.3144118,5.1721519 L19.8217647,3.34936709 L15.3313235,0.109367089 L10.8363235,3.34936709 L13.3436765,5.1721519 L15.3313235,3.74126582 Z M26.7967647,9.5878481 C25.1966176,6.01974684 25.8530882,1.15291139 25.8530882,1.15291139 C24.0267198,2.14594747 22.2718727,3.26511933 20.6013235,4.50227848 C18.9510294,5.73265823 16.74,7.33670886 15.9558824,7.93822785 C16.5622059,8.68556962 17.2551471,9.55139241 17.6882353,10.1711392 C17.9116176,10.4901266 18.0027941,10.5903797 18.1851471,10.8637975 L18.4130882,10.6724051 C19.6289661,9.65816307 20.9248502,8.74379483 22.2880882,7.93822785 C22.7109284,9.39917235 23.2271365,10.8314834 23.8335294,12.2263291 C25.2011765,15.3432911 27.1432353,18.6789873 26.7967647,23.2313924 C26.4001471,28.4810127 23.2363235,30.6820253 20.3414706,31.6435443 C20.4235294,30.8734177 20.4827941,30.1351899 20.5238235,29.4197468 C21.389234,29.3092364 22.2125897,28.9815963 22.9172059,28.4673418 C24.1392532,27.5706242 24.7152484,26.0364561 24.3851471,24.5574684 C24.2096685,23.622915 23.63987,22.8092495 22.8214706,22.324557 C22.0457435,21.918961 21.2074439,21.6463168 20.3414706,21.5179747 C20.2208791,20.5393007 20.0504619,19.567407 19.8308824,18.6060759 L19.995,18.6060759 C20.7203695,18.6302614 21.3586404,19.0916474 21.6088235,19.7726582 L23.0448529,19.6177215 C22.6254412,18.5832911 21.5997059,18.0182278 19.9448529,17.9225316 L19.6667647,17.9225316 C19.3778694,16.7745463 18.9935936,15.6526751 18.5179412,14.5686076 C17.71123,12.8285951 16.6847291,11.199116 15.4635294,9.72 C15.2720588,9.48303797 15.0897059,9.2643038 14.9119118,9.05012658 C14.5608824,8.64911392 14.2052941,8.26177215 13.8405882,7.89265823 C12.9374225,6.9460201 11.9783528,6.05429731 10.9685294,5.22227848 C9.04891052,3.68745589 6.99701437,2.32567517 4.83691176,1.15291139 C4.83691176,1.15291139 5.49338235,6.01974684 3.88867647,9.5878481 C2.28397059,13.1559494 -0.214264706,17.8496203 0.0364705882,23.4364557 C0.569852941,36.4420253 14.6885294,36.0091139 15.3541176,35.9772152 C16.0197059,35.9453165 30.1383824,36.4329114 30.6717647,23.4364557 C30.8860294,17.8496203 28.3969118,13.1605063 26.7967647,9.5878481 Z M21.7319118,23.2860759 C22.1962588,23.621636 22.4922704,24.1419382 22.5433824,24.7124051 C22.5935589,25.0548996 22.5718229,25.4040863 22.4795588,25.7377215 C22.2666907,26.6564849 21.5290488,27.3616116 20.6013235,27.5331646 C20.6013235,27.3827848 20.6013235,27.2278481 20.6013235,27.0774684 C20.6452664,25.6407654 20.6026403,24.2027211 20.4736765,22.7711392 C20.9151744,22.8829438 21.3387382,23.0562886 21.7319118,23.2860759 Z M18.9419118,21.2901266 C17.6517647,20.998481 17.1183824,20.4744304 17.3098529,19.7134177 C17.4571432,19.2674987 17.8184237,18.9251926 18.2717647,18.8020253 C18.5440687,19.6174473 18.7678425,20.4482676 18.9419118,21.2901266 Z M19.5664706,27.7017722 C19.5664706,27.7017722 16.3433824,28.2394937 16.3342647,24.5756962 L14.3420588,24.9356962 C13.8861765,27.7518987 15.7689706,29.5336709 19.5482353,29.5336709 C19.4980882,30.7002532 19.4160294,31.5022785 19.3886765,31.7255696 C19.3886765,31.7893671 19.3886765,31.8531646 19.3886765,31.916962 C18.2438828,32.1820676 17.0716811,32.3105594 15.8966176,32.2997468 L14.8480882,32.2997468 C12.6507353,32.3270886 4.55426471,31.8440506 3.90691176,23.2313924 C3.565,18.6744304 5.51617647,15.3432911 6.87470588,12.2263291 C7.47789372,10.8384964 7.99255112,9.41387324 8.41558824,7.96101266 C8.41558824,7.96101266 15.3358824,11.8025316 17.8022059,17.4896203 C17.8903431,17.6962025 17.972402,17.9012658 18.0483824,18.1048101 C16.8220588,18.3782278 16.0744118,18.956962 15.8282353,19.8501266 C15.6033333,20.6673418 15.8981373,21.3174684 16.7126471,21.8005063 C17.4574044,22.197561 18.2744317,22.4408645 19.1151471,22.5159494 L19.1972059,22.5159494 C19.4504748,24.2312975 19.5739133,25.9633015 19.5664706,27.6972152 L19.5664706,27.7017722 Z" id="Shape"></path>
                </g>
            </g>
        </g>
    </g>
</svg>